<svg width="56" height="70" fill="none" xmlns="http://www.w3.org/2000/svg"><path fill-rule="evenodd" clip-rule="evenodd" d="M18.952 52.203c-1.1-1.28-2.239-2.5-3.46-3.81C8.695 41.125-.474 31.306.02 19.638.402 10.5 7.211 4.5 16.027 1.762a41.58 41.58 0 0123.946 0C48.79 4.501 55.6 10.5 55.982 19.65c.483 11.668-8.685 21.476-15.474 28.755-1.23 1.31-2.36 2.52-3.47 3.809l-.937 1.09v.09H19.96l-1.008-1.16v-.03zM30.22 6.81v38.494C37.28 30.587 44.654 14.78 35.787 7.6a33.861 33.861 0 00-5.568-.79zm-4.095 38.754V6.79a34.25 34.25 0 00-5.598.74c-9.078 7.178-1.564 23.185 5.598 37.993v.04zm17.4-34.816c3.096 8.659-1.685 20.566-7.203 32.255 5.87-6.3 13.244-14.578 12.891-23.097-.161-3.919-2.37-6.999-5.689-9.158zM20.13 43.493c-5.658-11.928-10.64-24.126-7.362-32.934-3.47 2.19-5.81 5.309-5.982 9.348-.363 8.749 7.405 17.226 13.345 23.585zm15.961 11.389l-.776 6.25v5.209c0 2-1.947 3.659-4.328 3.659h-5.9c-2.38 0-4.328-1.65-4.328-3.66v-4.998l-.797-6.43h3.31l.544 4.36h8.422l.545-4.36 3.308-.03z" fill="#fff"/></svg>